<svg width="1376" height="600" fill="none" xmlns="http://www.w3.org/2000/svg"><mask id="a" style="mask-type:alpha" maskUnits="userSpaceOnUse" x="0" y="0" width="1376" height="600"><rect width="1376" height="600" rx="8" fill="#EDCFE7"/></mask><g mask="url(#a)" fill="#FBE3F6"><path d="M481.846-91.177c2.093 1.6 2.093 4.753 0 6.354l-34.88 26.676a4 4 0 0 0-1.082 5.092L466.898-14.5c1.261 2.314-.021 5.194-2.585 5.805L421.599 1.49a4 4 0 0 0-3.06 4.211l3.515 43.77c.211 2.627-2.131 4.737-4.722 4.252l-43.163-8.07a4 4 0 0 0-4.508 2.602L355.069 89.67c-.876 2.486-3.874 3.46-6.043 1.964l-36.149-24.93a4 4 0 0 0-5.177.545l-30.175 31.9c-1.811 1.914-4.947 1.585-6.32-.665l-22.884-37.476a4 4 0 0 0-4.95-1.61l-40.542 16.87c-2.433 1.012-5.164-.564-5.503-3.178l-5.663-43.544a4 4 0 0 0-3.868-3.483l-43.898-1.08c-2.634-.064-4.487-2.615-3.735-5.14l12.539-42.084a4 4 0 0 0-2.117-4.755l-39.664-18.84c-2.381-1.132-3.036-4.215-1.321-6.217l28.571-33.344a4 4 0 0 0 0-5.206l-28.571-33.344c-1.715-2.002-1.06-5.085 1.321-6.216l39.664-18.841a4 4 0 0 0 2.117-4.755l-12.539-42.083c-.752-2.526 1.101-5.077 3.735-5.141l43.898-1.08a4 4 0 0 0 3.869-3.483l5.662-43.544c.339-2.614 3.07-4.19 5.503-3.178l40.542 16.869a4 4 0 0 0 4.95-1.608l22.884-37.477c1.373-2.25 4.509-2.579 6.32-.665l30.175 31.901a4.002 4.002 0 0 0 5.177.544l36.149-24.93c2.169-1.496 5.168-.522 6.043 1.964l14.592 41.416a4.001 4.001 0 0 0 4.508 2.603l43.163-8.071c2.591-.485 4.933 1.625 4.722 4.252l-3.515 43.77a4 4 0 0 0 3.06 4.211l42.714 10.183c2.564.611 3.846 3.491 2.585 5.805l-21.014 38.556a4 4 0 0 0 1.082 5.092l34.88 26.676Zm890.224 331.633a6.136 6.136 0 0 1-8.14 0l-4.91-4.352a6.12 6.12 0 0 0-6.74-.929l-5.9 2.862a6.136 6.136 0 0 1-7.84-2.2l-3.56-5.518a6.125 6.125 0 0 0-6.24-2.718l-6.45 1.161a6.134 6.134 0 0 1-6.95-4.237l-1.94-6.275a6.16 6.16 0 0 0-5.29-4.307l-6.52-.625a6.141 6.141 0 0 1-5.55-5.961l-.18-6.566a6.164 6.164 0 0 0-3.93-5.575l-6.11-2.367a6.16 6.16 0 0 1-3.75-7.241l1.6-6.371c.6-2.408-.3-4.943-2.28-6.43l-5.25-3.932a6.158 6.158 0 0 1-1.66-7.985l3.26-5.703a6.167 6.167 0 0 0-.47-6.808l-4-5.206a6.165 6.165 0 0 1 .56-8.136l4.67-4.612a6.161 6.161 0 0 0 1.38-6.681l-2.45-6.094a6.176 6.176 0 0 1 2.73-7.684l5.74-3.18a6.17 6.17 0 0 0 3.13-6.058l-.72-6.53a6.159 6.159 0 0 1 4.69-6.663l6.38-1.51a6.149 6.149 0 0 0 4.65-4.987l1.07-6.481a6.138 6.138 0 0 1 6.31-5.147l6.55.27a6.14 6.14 0 0 0 5.82-3.545l2.77-5.952a6.143 6.143 0 0 1 7.47-3.249l6.23 2.031a6.14 6.14 0 0 0 6.56-1.84l4.27-4.982a6.13 6.13 0 0 1 8.06-1.11l5.46 3.64a6.116 6.116 0 0 0 6.8 0l5.46-3.64a6.13 6.13 0 0 1 8.06 1.11l4.27 4.981a6.14 6.14 0 0 0 6.56 1.841l6.23-2.031a6.143 6.143 0 0 1 7.47 3.25l2.77 5.951a6.14 6.14 0 0 0 5.82 3.545l6.55-.27a6.138 6.138 0 0 1 6.31 5.147l1.07 6.481a6.149 6.149 0 0 0 4.65 4.987l6.38 1.51a6.159 6.159 0 0 1 4.69 6.663l-.72 6.53a6.17 6.17 0 0 0 3.13 6.058l5.74 3.18a6.176 6.176 0 0 1 2.73 7.684l-2.45 6.094a6.161 6.161 0 0 0 1.38 6.681l4.67 4.612a6.165 6.165 0 0 1 .56 8.136l-4 5.206a6.167 6.167 0 0 0-.47 6.808l3.26 5.703a6.158 6.158 0 0 1-1.66 7.985l-5.25 3.932a6.177 6.177 0 0 0-2.28 6.43l1.6 6.371a6.16 6.16 0 0 1-3.75 7.241l-6.11 2.367a6.164 6.164 0 0 0-3.93 5.575l-.18 6.566a6.141 6.141 0 0 1-5.55 5.961l-6.52.625a6.16 6.16 0 0 0-5.29 4.307l-1.94 6.275a6.134 6.134 0 0 1-6.95 4.237l-6.45-1.161a6.125 6.125 0 0 0-6.24 2.718l-3.56 5.518a6.136 6.136 0 0 1-7.84 2.2l-5.9-2.862a6.12 6.12 0 0 0-6.74.929l-4.91 4.352Z"/><circle cx="1160" cy="600" r="64" transform="rotate(-180 1160 600)"/><path d="M86.065 495.788c2.98 2.726 6.752 4.673 10.923 5.257l22.641 3.116c10.526 1.363 18.073 10.71 17.08 21.031l-1.986 22.2c-.397 4.089.596 8.179 2.78 11.684l11.718 19.278c5.362 8.958 2.78 20.447-6.157 26.094l-19.066 12.269c-3.376 2.336-6.156 5.452-7.547 9.347l-8.142 20.836c-3.774 9.737-14.498 14.8-24.627 11.684l-21.648-6.816a21.38 21.38 0 0 0-12.115 0l-21.648 6.816C18.143 661.7 7.418 656.637 3.644 646.9l-8.142-20.836c-1.39-3.895-4.171-7.011-7.547-9.347l-19.066-12.269c-8.739-5.647-11.52-17.331-6.157-26.094l11.718-19.278c2.184-3.505 2.979-7.595 2.78-11.684l-1.986-22.2c-.993-10.321 6.554-19.473 17.08-21.031l22.64-3.116c4.172-.584 7.945-2.336 10.924-5.257l16.484-15.384a20.078 20.078 0 0 1 27.407 0l16.286 15.384Z"/></g></svg>