<svg width="176" height="71" fill="none" xmlns="http://www.w3.org/2000/svg"><path d="M35.75 25.22c.261.02.522.054.783.054 5.052.002 10.102.012 15.154-.01.594-.003.787.152.797.76.027 1.533.135 3.064.207 4.597.007.147.002.295.002.51-.808 0-1.573.017-2.334-.015-.139-.006-.329-.185-.392-.328-.202-.46-.364-.937-.526-1.413-.28-.83-.86-1.244-1.729-1.247-1.449-.005-2.897 0-4.403 0v5.922c.694-.08 1.55.054 2.052-.305.502-.36.65-1.213.979-1.907h1.989v6.842c-.618 0-1.226.021-1.83-.016-.134-.008-.34-.203-.369-.34-.399-1.935-.756-1.854-2.827-1.75-.023 0-.048.303-.05.469a496.428 496.428 0 0 0 0 4.21c.007 1.16.346 1.552 1.499 1.767 1.102.205 1.102.205 1.102 1.26 0 1.41 0 1.41-1.415 1.41-2.636 0-5.27-.001-7.906.003-.261 0-.522.034-.783.053v-2.5c.403-.088.81-.17 1.211-.266.808-.192 1.18-.593 1.183-1.423.015-4.048.015-8.097 0-12.145-.003-.83-.373-1.23-1.183-1.423-.402-.097-.808-.178-1.211-.265v-2.503Zm104.5 15.525c-.028.033-.074.062-.08.1-.591 3.02-2.643 4.495-5.489 4.98-2.654.453-5.287.146-7.869-.61-.326-.095-.513-.226-.525-.62-.045-1.51-.129-3.019-.201-4.58h2.828c.132.468.253.954.405 1.431.296.934.953 1.47 1.92 1.542.738.054 1.493.08 2.223-.016.968-.127 1.672-.675 1.863-1.685.191-1.016.002-1.95-.914-2.556-.541-.36-1.156-.618-1.755-.88-.944-.412-1.919-.749-2.851-1.182-3.236-1.506-4.542-5.226-2.955-8.428.952-1.92 2.654-2.768 4.668-3.137.19-.034.376-.094.564-.143h3.427c.749.135 1.5.26 2.246.41 1.235.249 1.248.254 1.344 1.493.093 1.193.153 2.388.232 3.666-.772 0-1.469-.032-2.161.01-.494.03-.72-.124-.886-.61-.292-.861-.716-1.73-1.749-1.85-.812-.095-1.671-.105-2.464.06-1.138.238-1.585 1.218-1.241 2.342.245.8.837 1.28 1.553 1.598 1.038.461 2.101.868 3.156 1.291 2.328.934 4.161 2.327 4.663 4.968.003.016.033.028.051.042-.003.785-.003 1.573-.003 2.364Zm-60.878-2.692V36.5c0-2.235.004-4.47 0-6.706-.005-1.334-.258-1.69-1.565-1.896-.579-.092-.717-.316-.677-.845.044-.562.01-1.13.01-1.734h7.644c0 .744.017 1.478-.018 2.21-.006.113-.242.27-.396.31-1.555.4-1.707.585-1.707 2.21v15.634c-1.598 0-3.131.018-4.661-.023-.174-.004-.388-.308-.501-.517-2.454-4.546-4.895-9.099-7.341-13.65-.1-.186-.211-.367-.413-.714-.026.37-.054.57-.054.772-.002 3.178-.004 6.355 0 9.533.002 1.489.2 1.75 1.656 2.006.419.074.553.219.533.627-.029.629-.008 1.261-.008 1.93H64.23c0-.754-.01-1.488.013-2.22.004-.1.165-.237.282-.284.2-.08.426-.095.638-.148.882-.22 1.169-.553 1.173-1.479.014-2.827.01-5.653.01-8.482 0-1.184.006-2.366-.007-3.55-.011-.992-.224-1.328-1.202-1.488-.773-.126-1.028-.455-.924-1.205.064-.47.011-.954.011-1.474.248-.017.44-.042.633-.042 2.328-.003 4.654.012 6.982-.013.449-.006.648.174.844.546 2.049 3.893 4.116 7.777 6.179 11.663.112.21.236.412.355.62.054-.011.105-.025.156-.038Zm45.966-12.72c0 .368.003.674 0 .979-.004.438.14.978-.064 1.283-.189.28-.754.313-1.156.446-.567.187-.863.574-.884 1.168-.014.373-.024.745-.024 1.118l-.001 14.467v.849c-.259.017-.468.043-.679.045-1.207.003-2.416-.022-3.623.013-.468.013-.703-.163-.914-.557-2.41-4.52-4.835-9.032-7.258-13.547-.122-.23-.256-.453-.539-.672v.583c0 3.222-.001 6.444.001 9.668.002 1.344.236 1.68 1.56 1.892.577.092.719.316.678.847-.043.56-.009 1.127-.009 1.733h-7.657c0-.745-.015-1.48.016-2.212.003-.107.202-.25.338-.3.286-.106.649-.083.874-.253.322-.242.614-.577.792-.934.136-.274.1-.644.1-.97.006-3.682.004-7.365.003-11.047 0-.154.001-.308-.008-.46-.063-1-.258-1.31-1.243-1.474-.746-.126-.976-.457-.892-1.168.057-.472.01-.957.01-1.493.239-.022.426-.054.613-.054 2.328-.004 4.655.012 6.983-.015.455-.005.658.183.85.547 2.053 3.891 4.119 7.776 6.183 11.662.106.202.226.396.427.74.022-.359.043-.545.043-.73.003-2.565.004-5.13 0-7.695-.001-1.372-.212-1.676-1.543-1.892-.551-.09-.683-.307-.65-.807.037-.565.009-1.134.009-1.757 2.563-.003 5.071-.003 7.664-.003Zm-20.97 18.042v2.276h-9.445c0-.738-.017-1.452.016-2.164.005-.126.212-.336.344-.35 1.329-.149 1.582-.72 1.203-2.094-.085-.313-.193-.62-.305-.976-1.942 0-3.87-.003-5.8.005-.112 0-.308.067-.322.133-.145.674-.372 1.358-.352 2.033.017.57.63.754 1.133.827.459.066.568.277.547.697-.03.61-.008 1.223-.008 1.88h-7.494c0-.735-.022-1.45.02-2.16.008-.135.257-.335.42-.365 1.126-.203 1.712-.909 2.071-1.953 1.73-5.047 3.506-10.077 5.23-15.127.208-.608.487-.807 1.113-.776 1.073.051 2.153.04 3.227.002.489-.017.672.169.82.614 1.647 4.937 3.31 9.866 4.987 14.793.188.553.373 1.182.762 1.574.464.472 1.148.727 1.833 1.131Zm-9.007-6.091-2.081-6.895c-.053.01-.107.017-.16.027l-2.17 6.868h4.41Zm-31.949-11.96c0 .318.002.558 0 .798-.005.504.155 1.114-.074 1.477-.187.296-.843.296-1.292.426-.638.186-1.01.59-1.046 1.269-.014.263-.034.525-.034.788-.003 3.594-.003 7.189-.002 10.783 0 1.642.248 1.98 1.838 2.219.528.08.645.28.618.754-.033.586-.008 1.175-.008 1.806h-9.976c0-.732-.022-1.428.019-2.119.007-.14.24-.363.39-.383 1.967-.252 2.07-.851 2.062-2.587-.015-3.484-.004-6.97-.005-10.455 0-1.621-.266-1.98-1.845-2.22-.517-.079-.662-.262-.632-.749.037-.584.01-1.173.01-1.807h9.977Z" fill="#10100F"/></svg>