<svg width="176" height="71" fill="none" xmlns="http://www.w3.org/2000/svg"><path d="M42.88 27.778v6.329h6.899v2.229H42.88v9.148h-3.83V25.516H50.6v2.262h-7.72Zm9.92 17.706v-15.53h3.3v15.53h-3.3Zm15.963 0V33.9c0-2.079-1.944-2.864-4.133-2.864a9.688 9.688 0 0 0-3.078.526v13.922H57.75V30.018a20.459 20.459 0 0 1 7.09-1.173c4.656 0 7.76 1.44 7.76 4.995v11.644h-3.837Zm9.056-6.784c.355 3.242 2.25 4.876 5.43 4.876a12.088 12.088 0 0 0 4.87-.939l.888 2.216a14.566 14.566 0 0 1-6.08 1.182c-5.277 0-8.677-3.033-8.677-8.639 0-5.397 3.163-8.552 7.941-8.552 4.778 0 7.459 2.877 7.459 8.37L77.819 38.7Zm4.228-7.736c-2.537 0-4.541 1.913-4.448 5.971l8.457-1.12c.025-3.364-1.565-4.85-4.017-4.85h.008Zm19.386 14.512-3.92-5.898h-.057l-3.977 5.906H89.65l6.048-8.096-5.413-7.435h3.945l3.54 5.27h.057l3.656-5.27h3.539l-5.528 7.262 6.106 8.261h-4.167Zm11.917.561c-3.795 0-5.246-2.13-5.246-4.261v-9.76H105.6v-2.038h2.53V26.45l3.831-.935v4.462h3.539v2.038h-3.539v9.593c-.014.304.043.608.165.89.123.281.309.534.545.742.237.207.518.364.824.458.307.095.632.126.952.09a4.55 4.55 0 0 0 1.053-.142v2.064a6.189 6.189 0 0 1-2.15.326Zm12.372-14.624a7.149 7.149 0 0 0-4.469.164v13.907H117.7v-15.45a17.195 17.195 0 0 1 7.081-1.172c.606 0 1.342.06 1.719.087l-.778 2.464Zm8.335 14.617c-5.141 0-7.557-1.911-7.557-5.03 0-4.397 4.927-5.579 10.787-6.083v-.92c0-2.242-1.645-2.912-4.035-2.912a13.23 13.23 0 0 0-4.756.939l-.856-1.998a17.594 17.594 0 0 1 6.306-1.182c3.889 0 6.854 1.486 6.854 5.665v10.34a16.797 16.797 0 0 1-6.743 1.182Zm3.23-9.462c-4.335.426-7.231 1.182-7.231 4.345 0 2.215 1.713 3.154 4.284 3.154 1.003.02 2-.166 2.93-.548l.017-6.95ZM52.8 27.734v-2.218h3.3v2.218h-3.3Z" fill="#10100F"/></svg>