<svg width="24" height="24" fill="none" xmlns="http://www.w3.org/2000/svg"><mask id="a" style="mask-type:alpha" maskUnits="userSpaceOnUse" x="1" y="4" width="22" height="16"><path fill="#22438B" d="M1 4h22v16H1z"/></mask><g mask="url(#a)"><path fill="#22438B" d="M1 4h22v16H1z"/><path d="m22.118 21.213.404.294.294-.404 1.177-1.618.294-.404-.405-.294-22-16-.404-.294-.294.404L.007 4.515l-.294.404.405.294 22 16Z" fill="#C7152A" stroke="#fff"/><path d="m1.882 21.213-.404.294-.294-.404-1.176-1.618-.295-.404.405-.294 22-16 .404-.294.294.404 1.177 1.618.294.404-.405.294-22 16Z" fill="#C7152A" stroke="#fff"/><path d="M.5 13.5v.5H10v6.5h4V14h9.5v-4H14V3.5h-4V10H.5v3.5Z" fill="#C7152A" stroke="#fff"/></g></svg>