<svg width="90" height="90" fill="none" xmlns="http://www.w3.org/2000/svg"><path d="M26.719 36.563v28.124h-7.032c-7.766 0-14.062-6.295-14.062-14.062 0-7.767 6.296-14.063 14.063-14.063h7.03Zm36.562 28.125V36.561h7.032c7.766 0 14.062 6.297 14.062 14.063 0 7.767-6.296 14.063-14.063 14.063h-7.03Z" fill="#fff"/><path d="M70.313 64.688V36.561C70.313 22.582 58.98 11.25 45 11.25c-13.98 0-25.313 11.333-25.313 25.313v28.124m50.626.001c0 6.213-5.037 11.25-11.25 11.25" stroke="#10100F" stroke-width="2"/><circle cx="56.25" cy="75.938" r="2.813" stroke="#10100F" stroke-width="2"/></svg>