<svg width="60" height="61" fill="none" xmlns="http://www.w3.org/2000/svg"><path d="M27.79 59.084a3.38 3.38 0 0 0 4.42 0 3.367 3.367 0 0 1 3.596-.522c1.52.69 3.33.139 4.234-1.264a3.405 3.405 0 0 1 3.31-1.535 3.375 3.375 0 0 0 3.695-2.381l.022-.072a3.406 3.406 0 0 1 2.744-2.394 3.406 3.406 0 0 0 2.885-3.339V47.5a3.445 3.445 0 0 1 1.969-3.085 3.445 3.445 0 0 0 1.84-4.042l-.015-.053a3.48 3.48 0 0 1 1.03-3.532 3.49 3.49 0 0 0 .63-4.436 3.521 3.521 0 0 1 0-3.704 3.49 3.49 0 0 0-.63-4.436 3.48 3.48 0 0 1-1.03-3.532l.016-.053a3.445 3.445 0 0 0-1.841-4.042 3.445 3.445 0 0 1-1.969-3.085v-.077a3.406 3.406 0 0 0-2.885-3.339 3.406 3.406 0 0 1-2.744-2.394l-.022-.072a3.375 3.375 0 0 0-3.695-2.381 3.405 3.405 0 0 1-3.31-1.534c-.904-1.404-2.715-1.956-4.234-1.266a3.367 3.367 0 0 1-3.595-.521 3.379 3.379 0 0 0-4.422 0 3.367 3.367 0 0 1-3.595.521c-1.52-.69-3.33-.138-4.234 1.266a3.405 3.405 0 0 1-3.31 1.534 3.375 3.375 0 0 0-3.695 2.381l-.022.072a3.406 3.406 0 0 1-2.744 2.394 3.406 3.406 0 0 0-2.885 3.339v.077a3.445 3.445 0 0 1-1.969 3.085 3.445 3.445 0 0 0-1.84 4.042l.014.053a3.48 3.48 0 0 1-1.029 3.532 3.49 3.49 0 0 0-.63 4.436 3.521 3.521 0 0 1 0 3.704 3.49 3.49 0 0 0 .63 4.436 3.48 3.48 0 0 1 1.03 3.532l-.016.053a3.445 3.445 0 0 0 1.841 4.042A3.445 3.445 0 0 1 7.304 47.5v.077a3.406 3.406 0 0 0 2.885 3.339 3.406 3.406 0 0 1 2.744 2.395l.022.07a3.375 3.375 0 0 0 3.695 2.382c1.302-.179 2.6.43 3.31 1.535.904 1.403 2.714 1.955 4.234 1.264a3.367 3.367 0 0 1 3.595.522Z" fill="#388CEE"/><path d="M42.5 35.583c-4.91 9.89-20.09 10.44-25 0m0-8.895s5-5.72 10 0m5 0s5-5.72 10 0" stroke="#10100F" stroke-width="2"/></svg>