<svg width="128" height="128" fill="none" xmlns="http://www.w3.org/2000/svg"><path d="M60.365 112.785a5.487 5.487 0 0 0 7.27 0 5.487 5.487 0 0 1 6.027-.828 5.488 5.488 0 0 0 7-1.962 5.486 5.486 0 0 1 5.58-2.423 5.488 5.488 0 0 0 6.212-3.778 5.487 5.487 0 0 1 4.719-3.839 5.487 5.487 0 0 0 4.962-5.313 5.488 5.488 0 0 1 3.508-4.97 5.487 5.487 0 0 0 3.345-6.455 5.487 5.487 0 0 1 2.037-5.732 5.487 5.487 0 0 0 1.479-7.118 5.489 5.489 0 0 1 .415-6.07 5.487 5.487 0 0 0-.496-7.253 5.486 5.486 0 0 1-1.237-5.956 5.488 5.488 0 0 0-2.435-6.85 5.487 5.487 0 0 1-2.799-5.402 5.486 5.486 0 0 0-4.192-5.94 5.487 5.487 0 0 1-4.153-4.445 5.487 5.487 0 0 0-5.64-4.588 5.487 5.487 0 0 1-5.197-3.161 5.487 5.487 0 0 0-6.668-2.897 5.487 5.487 0 0 1-5.858-1.64 5.487 5.487 0 0 0-7.202-.99 5.487 5.487 0 0 1-6.084 0 5.487 5.487 0 0 0-7.202.99 5.487 5.487 0 0 1-5.858 1.64 5.487 5.487 0 0 0-6.668 2.897 5.487 5.487 0 0 1-5.198 3.16 5.487 5.487 0 0 0-5.64 4.589 5.487 5.487 0 0 1-4.152 4.446 5.487 5.487 0 0 0-4.192 5.94 5.487 5.487 0 0 1-2.799 5.4 5.487 5.487 0 0 0-2.435 6.851 5.487 5.487 0 0 1-1.237 5.956 5.487 5.487 0 0 0-.496 7.254 5.487 5.487 0 0 1 .415 6.069 5.487 5.487 0 0 0 1.479 7.118 5.487 5.487 0 0 1 2.037 5.732 5.487 5.487 0 0 0 3.345 6.455 5.487 5.487 0 0 1 3.508 4.97 5.487 5.487 0 0 0 4.962 5.313 5.487 5.487 0 0 1 4.72 3.839 5.488 5.488 0 0 0 6.211 3.778 5.486 5.486 0 0 1 5.58 2.423 5.488 5.488 0 0 0 7 1.962 5.487 5.487 0 0 1 6.027.828Z" fill="#EDCFE7"/><path d="M86 65c0 32-44 32-44 0h44ZM40 52s9-9 18 0m12 0s9-9 18 0" stroke="#10100F" stroke-width="2"/></svg>