<svg width="86" height="28" fill="none" xmlns="http://www.w3.org/2000/svg"><path d="m32.653.497-11.26 27.079h-7.346L8.506 5.965c-.336-1.332-.627-1.82-1.653-2.38-1.67-.912-4.43-1.77-6.853-2.303L.166.497H11.99c1.505 0 2.862 1.011 3.202 2.763l2.925 15.669L25.352.497h7.301Zm28.783 18.237c.032-7.148-9.805-7.54-9.737-10.733.022-.97.94-2.005 2.947-2.266.994-.131 3.74-.23 6.853 1.21L62.717 1.2C61.047.587 58.897 0 56.218 0c-6.871 0-11.704 3.68-11.744 8.954-.045 3.897 3.449 6.073 6.082 7.37 2.71 1.327 3.62 2.18 3.606 3.363-.018 1.815-2.159 2.62-4.161 2.65-3.494.055-5.518-.952-7.135-1.71l-1.259 5.933c1.621.75 4.623 1.404 7.727 1.44 7.305 0 12.08-3.635 12.102-9.266Zm18.136 8.842H86L80.388.496h-5.93c-1.336 0-2.46.782-2.957 1.987L61.073 27.576h7.297l1.451-4.046h8.914l.837 4.046ZM71.82 17.98l3.66-10.168 2.105 10.168H71.82ZM42.583.497l-5.746 27.079h-6.952L35.636.496h6.947Z" fill="#10100F"/></svg>