<svg width="90" height="90" fill="none" xmlns="http://www.w3.org/2000/svg"><path d="M42.444 79.302a3.858 3.858 0 0 0 5.112 0 3.858 3.858 0 0 1 4.237-.582 3.858 3.858 0 0 0 4.923-1.38 3.858 3.858 0 0 1 3.923-1.704 3.858 3.858 0 0 0 4.368-2.656 3.858 3.858 0 0 1 3.318-2.7 3.858 3.858 0 0 0 3.489-3.735 3.858 3.858 0 0 1 2.466-3.494 3.858 3.858 0 0 0 2.352-4.54 3.858 3.858 0 0 1 1.432-4.03 3.858 3.858 0 0 0 1.04-5.005 3.858 3.858 0 0 1 .293-4.267 3.858 3.858 0 0 0-.35-5.1 3.858 3.858 0 0 1-.87-4.188 3.858 3.858 0 0 0-1.712-4.816 3.858 3.858 0 0 1-1.967-3.798 3.858 3.858 0 0 0-2.948-4.176 3.858 3.858 0 0 1-2.92-3.126 3.858 3.858 0 0 0-3.965-3.226 3.858 3.858 0 0 1-3.655-2.223 3.858 3.858 0 0 0-4.688-2.036 3.858 3.858 0 0 1-4.119-1.154 3.858 3.858 0 0 0-5.064-.697 3.858 3.858 0 0 1-4.278 0 3.858 3.858 0 0 0-5.064.697 3.858 3.858 0 0 1-4.119 1.154 3.858 3.858 0 0 0-4.688 2.036 3.858 3.858 0 0 1-3.655 2.223 3.858 3.858 0 0 0-3.965 3.226 3.858 3.858 0 0 1-2.92 3.126 3.858 3.858 0 0 0-2.948 4.176 3.858 3.858 0 0 1-1.968 3.798 3.858 3.858 0 0 0-1.711 4.816 3.858 3.858 0 0 1-.87 4.188 3.858 3.858 0 0 0-.35 5.1 3.858 3.858 0 0 1 .292 4.267 3.858 3.858 0 0 0 1.04 5.005 3.858 3.858 0 0 1 1.433 4.03 3.858 3.858 0 0 0 2.352 4.54 3.858 3.858 0 0 1 2.466 3.494 3.858 3.858 0 0 0 3.49 3.736 3.858 3.858 0 0 1 3.317 2.7c.577 1.86 2.45 3 4.368 2.655a3.859 3.859 0 0 1 3.923 1.704 3.858 3.858 0 0 0 4.923 1.38 3.858 3.858 0 0 1 4.237.582Z" fill="#fff"/><path d="M60.469 45.703c0 22.5-30.938 22.5-30.938 0H60.47Zm-32.344-9.14s6.328-6.329 12.656 0m8.438 0s6.328-6.329 12.656 0" stroke="#10100F" stroke-width="2"/></svg>