<svg width="128" height="96" fill="none" xmlns="http://www.w3.org/2000/svg"><rect y="64.455" width="80" height="48" rx="4" transform="rotate(-53.675 0 64.455)" fill="#EDCFE7"/><mask id="a" fill="#fff"><path d="M124 40H20a4 4 0 0 0-4 4v48a4 4 0 0 0 4 4h104a4 4 0 0 0 4-4V44a4 4 0 0 0-4-4Z"/></mask><path d="M20 42h104v-4H20v4Zm104 52H20v4h104v-4ZM18 92V44h-4v48h4Zm112 0V44h-4v48h4ZM20 94a2 2 0 0 1-2-2h-4a6 6 0 0 0 6 6v-4Zm104 4a6 6 0 0 0 6-6h-4a2 2 0 0 1-2 2v4Zm0-56a2 2 0 0 1 2 2h4a6 6 0 0 0-6-6v4ZM20 38a6 6 0 0 0-6 6h4a2 2 0 0 1 2-2v-4Z" fill="#10100F" mask="url(#a)"/><rect x="21.231" y="67.653" width="14" height="10" rx="2" transform="rotate(-53.675 21.231 67.653)" stroke="#10100F" stroke-width="2"/></svg>