<svg width="90" height="90" fill="none" xmlns="http://www.w3.org/2000/svg"><path d="M19.688 14.063h42.187v61.874H19.687V14.063Z" fill="#fff"/><path d="m19.688 14.063.287-.958-1.288-.386v1.344h1ZM47.813 22.5h1v-.744l-.713-.214-.288.958Zm0 61.875-.288.958 1.288.386v-1.344h-1Zm-28.126-8.438h-1v.745l.713.213.288-.957ZM19.4 15.02l28.125 8.438.575-1.916-28.125-8.437-.575 1.915Zm27.413 7.48v61.875h2V22.5h-2ZM48.1 83.417 19.975 74.98l-.575 1.915 28.125 8.438.575-1.916Zm-27.413-7.48V14.063h-2v61.874h2Z" fill="#10100F"/><path d="M52.734 45h22.5m0 0-6.328-6.328M75.234 45l-6.328 6.328" stroke="#10100F" stroke-width="2"/></svg>