<svg width="64" height="64" fill="none" xmlns="http://www.w3.org/2000/svg"><path d="m32 0 3.922 3.468 4.712-2.281 2.84 4.397 5.153-.925 1.548 5 5.212.5.142 5.233 4.883 1.886-1.275 5.078 4.194 3.133-2.598 4.546 3.192 4.149-3.727 3.675 1.954 4.857-4.58 2.534.571 5.204-5.095 1.203-.853 5.166-5.231-.216-2.215 4.744-4.979-1.619-3.413 3.97L32 60.8l-4.357 2.902-3.413-3.97-4.979 1.619-2.215-4.744-5.23.216-.854-5.166-5.095-1.203.572-5.204-4.581-2.534 1.954-4.857-3.727-3.675 3.192-4.15L.67 25.49l4.194-3.134-1.275-5.077 4.883-1.886.142-5.234 5.212-.498 1.548-5.001 5.153.925 2.84-4.397 4.712 2.281L32 0Z" fill="#FF8058"/></svg>