<svg width="86" height="36" fill="none" xmlns="http://www.w3.org/2000/svg"><path d="M15.714 4.641c-1.008 1.216-2.62 2.175-4.234 2.038-.201-1.644.588-3.39 1.512-4.47C14 .96 15.764.07 17.192 0c.168 1.713-.487 3.391-1.478 4.641Zm1.461 2.364c-2.335-.137-4.334 1.353-5.443 1.353-1.125 0-2.822-1.285-4.67-1.25-2.402.034-4.636 1.421-5.862 3.63C-1.32 15.157.545 21.7 2.98 25.296c1.193 1.781 2.621 3.733 4.502 3.665 1.781-.069 2.487-1.182 4.637-1.182 2.167 0 2.789 1.182 4.67 1.148 1.949-.035 3.175-1.781 4.368-3.563 1.36-2.02 1.915-3.99 1.948-4.093-.033-.034-3.763-1.49-3.796-5.874-.034-3.665 2.94-5.412 3.074-5.515-1.68-2.535-4.3-2.809-5.208-2.877Zm13.49-4.967v26.7h4.065V19.61h5.628c5.14 0 8.752-3.597 8.752-8.803 0-5.207-3.545-8.769-8.618-8.769h-9.827Zm4.065 3.494h4.687c3.528 0 5.544 1.918 5.544 5.292 0 3.374-2.016 5.31-5.56 5.31h-4.67V5.531Zm21.805 23.412c2.553 0 4.922-1.319 5.997-3.408h.084v3.202h3.763v-13.29c0-3.853-3.024-6.337-7.677-6.337-4.317 0-7.51 2.518-7.627 5.977h3.662c.303-1.644 1.798-2.723 3.847-2.723 2.487 0 3.88 1.182 3.88 3.357v1.473l-5.072.308c-4.72.291-7.274 2.261-7.274 5.686 0 3.46 2.637 5.755 6.417 5.755Zm1.092-3.168c-2.167 0-3.545-1.062-3.545-2.69 0-1.678 1.327-2.654 3.864-2.808l4.519-.291v1.507c0 2.5-2.083 4.282-4.838 4.282ZM71.402 36c3.964 0 5.829-1.541 7.459-6.217L86 9.368h-4.132L77.08 25.142h-.084L72.208 9.368h-4.25l6.888 19.439-.37 1.182c-.621 2.003-1.63 2.774-3.427 2.774-.32 0-.94-.034-1.193-.068v3.202c.236.069 1.244.103 1.546.103Z" fill="#000"/></svg>