<svg width="60" height="36" fill="none" xmlns="http://www.w3.org/2000/svg"><path d="M28.378 32.65c.154.1.309.25.463.35-2.935 1.9-6.49 3-10.249 3C8.292 36 0 27.95 0 18S8.292 0 18.54 0c3.812 0 7.314 1.1 10.25 3-.155.1-.31.25-.464.35-4.378 3.7-6.85 9-6.85 14.65 0 5.6 2.524 10.95 6.902 14.65ZM41.459 0c-3.811 0-7.313 1.1-10.249 3 .154.1.309.25.463.35 4.378 3.7 6.85 9 6.85 14.65 0 5.6-2.523 10.95-6.85 14.65-.154.1-.308.25-.463.35 2.936 1.9 6.49 3 10.249 3 10.249 0 18.54-8.05 18.54-18S51.709 0 41.46 0Z" fill="#000"/><path d="M29.974 3.85c-.258.2-.464.35-.721.55-3.863 3.3-6.335 8.2-6.335 13.6s2.472 10.3 6.386 13.6c.206.2.464.4.721.55.258-.2.464-.35.721-.55 3.863-3.3 6.335-8.2 6.335-13.6S34.61 7.7 30.695 4.4c-.206-.15-.464-.35-.721-.55Z" fill="#000"/></svg>