<svg width="228" height="81" fill="none" xmlns="http://www.w3.org/2000/svg"><path d="M0 0h42.75v42.75H0V0Zm46.313 0h42.75v42.75h-42.75V0Zm46.312 0h42.75v42.75h-42.75V0Zm46.313 0h42.75v42.75h-42.75V0Zm46.312 0H228v42.75h-42.75V0Z" fill="#00B67A"/><path d="m21.376 28.812 6.501-1.648 2.717 8.372-9.218-6.724Zm14.962-10.821H24.894L21.376 7.214l-3.518 10.777H6.413l9.263 6.68-3.518 10.776 9.262-6.68 5.7-4.096 9.218-6.68Zm31.35 10.821 6.502-1.648 2.716 8.372-9.218-6.724Zm14.963-10.821H71.206L67.688 7.214 64.17 17.991H52.726l9.262 6.68-3.518 10.776 9.263-6.68 5.7-4.096 9.218-6.68ZM114 28.812l6.501-1.648 2.717 8.372L114 28.812Zm14.962-10.821h-11.444L114 7.214l-3.518 10.777H99.038l9.263 6.68-3.518 10.776 9.262-6.68 5.7-4.096 9.218-6.68Zm31.35 10.821 6.502-1.648 2.716 8.372-9.218-6.724Zm14.963-10.821H163.83l-3.518-10.777-3.518 10.777H145.35l9.262 6.68-3.518 10.776 9.263-6.68 5.7-4.096 9.218-6.68Zm31.35 10.821 6.501-1.648 2.717 8.372-9.218-6.724Zm14.962-10.821h-11.444l-3.518-10.777-3.518 10.777h-11.445l9.263 6.68-3.518 10.776 9.262-6.68 5.7-4.096 9.218-6.68Z" fill="#fff"/><path d="M30.957 61.732h11.916v2.218h-4.692v12.505H35.61V63.95h-4.672l.02-2.218Zm11.406 4.063h2.198v2.061h.04a2.59 2.59 0 0 1 .412-.844c.196-.275.432-.53.726-.746.275-.235.589-.412.942-.55a2.743 2.743 0 0 1 1.04-.215c.276 0 .472.02.57.02.098.019.216.039.314.039v2.257c-.157-.04-.334-.059-.51-.078-.177-.02-.334-.04-.51-.04-.393 0-.766.079-1.12.236-.353.157-.647.393-.922.687a3.72 3.72 0 0 0-.628 1.139c-.157.451-.236.981-.236 1.57v5.065h-2.356l.04-10.6Zm17.039 10.66h-2.316v-1.492h-.04c-.294.55-.726.962-1.295 1.295a3.42 3.42 0 0 1-1.747.491c-1.394 0-2.415-.334-3.043-1.04-.628-.687-.942-1.747-.942-3.141v-6.773h2.355v6.537c0 .943.177 1.61.55 1.983.353.393.864.589 1.511.589.491 0 .904-.079 1.237-.236.334-.157.609-.353.805-.608.216-.255.353-.57.452-.923.098-.353.137-.746.137-1.158v-6.184h2.356v10.66h-.02Zm4.005-3.416c.078.687.333 1.158.785 1.453.451.274 1.001.412 1.63.412.215 0 .47-.02.745-.059.275-.04.55-.098.785-.196.256-.099.452-.236.609-.432.157-.197.236-.432.216-.727-.02-.294-.118-.55-.334-.745-.216-.197-.47-.334-.785-.472a6.806 6.806 0 0 0-1.1-.294c-.412-.079-.824-.177-1.256-.275a13.586 13.586 0 0 1-1.276-.353 3.657 3.657 0 0 1-1.099-.57 2.448 2.448 0 0 1-.766-.903c-.196-.373-.294-.804-.294-1.354 0-.589.137-1.06.432-1.453a3.13 3.13 0 0 1 1.08-.942 4.898 4.898 0 0 1 1.452-.51 8.313 8.313 0 0 1 1.512-.138c.55 0 1.08.059 1.57.177s.962.294 1.355.57c.412.254.746.608 1 1.02.276.412.433.923.511 1.511h-2.454c-.117-.569-.373-.942-.765-1.138a3.161 3.161 0 0 0-1.394-.295c-.157 0-.373.02-.589.04a3.426 3.426 0 0 0-.648.157 1.535 1.535 0 0 0-.51.334.785.785 0 0 0-.216.569c0 .294.098.51.294.687.197.177.452.314.786.451.314.118.687.216 1.099.295.412.078.844.177 1.276.275.432.098.844.216 1.256.353.413.137.786.314 1.1.57.314.235.589.53.785.883.196.353.294.805.294 1.315 0 .628-.137 1.158-.431 1.61a3.671 3.671 0 0 1-1.12 1.08c-.451.274-.981.47-1.53.608a8.23 8.23 0 0 1-1.67.196 7.033 7.033 0 0 1-1.864-.235 4.747 4.747 0 0 1-1.492-.688 3.295 3.295 0 0 1-.982-1.158c-.235-.451-.373-1-.392-1.649h2.375v.02h.02Zm7.754-7.244h1.786v-3.22h2.356v3.2h2.12v1.748h-2.12v5.693c0 .255.02.451.04.648.019.176.078.333.136.451a.768.768 0 0 0 .334.275c.157.059.354.098.628.098.157 0 .334 0 .491-.02.157-.02.334-.039.491-.078v1.825c-.255.04-.51.06-.766.079-.255.04-.49.04-.765.04-.628 0-1.12-.06-1.492-.177a2.144 2.144 0 0 1-.884-.51 1.824 1.824 0 0 1-.431-.845 6.698 6.698 0 0 1-.138-1.178v-6.282h-1.786v-1.786.04Zm7.911 0h2.218v1.453h.04c.333-.628.785-1.06 1.374-1.335a4.451 4.451 0 0 1 1.923-.412c.845 0 1.57.137 2.2.451a4.124 4.124 0 0 1 1.55 1.217c.412.51.726 1.12.922 1.806.197.688.315 1.434.315 2.199 0 .726-.099 1.413-.275 2.08-.197.668-.471 1.277-.844 1.787s-.844.923-1.433 1.237c-.59.314-1.257.471-2.042.471a5.99 5.99 0 0 1-1.02-.098 4.345 4.345 0 0 1-.982-.294 3.522 3.522 0 0 1-.864-.53 2.99 2.99 0 0 1-.667-.746h-.04v5.32h-2.355V65.794h-.02Zm8.225 5.34c0-.471-.059-.943-.196-1.394a3.556 3.556 0 0 0-.57-1.198 3.142 3.142 0 0 0-.922-.844c-.373-.215-.805-.314-1.276-.314-.981 0-1.727.334-2.238 1.021-.49.687-.746 1.61-.746 2.748 0 .55.059 1.04.196 1.492.138.452.314.844.59 1.178.254.334.569.59.942.785.373.197.785.295 1.276.295.55 0 .981-.118 1.354-.334.373-.216.668-.51.923-.844a3.46 3.46 0 0 0 .51-1.197c.098-.472.157-.923.157-1.394Zm4.142-9.403h2.356v2.218h-2.356v-2.218Zm0 4.063h2.356v10.66h-2.356v-10.66Zm4.457-4.063h2.355v14.723h-2.356V61.732Zm9.54 15.017c-.844 0-1.61-.137-2.277-.432a5.162 5.162 0 0 1-1.688-1.158 5.043 5.043 0 0 1-1.041-1.786 6.994 6.994 0 0 1-.373-2.258c0-.805.118-1.55.373-2.238a5.221 5.221 0 0 1 1.041-1.786 4.697 4.697 0 0 1 1.688-1.158 5.955 5.955 0 0 1 2.277-.432c.844 0 1.61.137 2.277.432a4.878 4.878 0 0 1 1.688 1.158c.452.49.805 1.1 1.041 1.786.235.687.373 1.433.373 2.238 0 .825-.118 1.57-.373 2.258-.255.687-.589 1.276-1.041 1.786a4.71 4.71 0 0 1-1.688 1.158 5.883 5.883 0 0 1-2.277.432Zm0-1.865c.51 0 .982-.118 1.354-.334.393-.215.688-.51.943-.863.255-.354.432-.766.549-1.198a5.375 5.375 0 0 0 0-2.728 3.507 3.507 0 0 0-.549-1.198 2.981 2.981 0 0 0-.943-.844 2.766 2.766 0 0 0-1.354-.334c-.51 0-.982.118-1.355.334-.392.216-.687.51-.942.844a3.507 3.507 0 0 0-.549 1.198 5.338 5.338 0 0 0 0 2.728c.117.452.294.844.549 1.198.255.353.569.648.942.864.393.235.845.333 1.355.333Zm6.085-9.089h1.787v-3.22h2.356v3.2h2.12v1.748h-2.12v5.693c0 .255.019.451.039.648.019.176.078.333.137.451a.773.773 0 0 0 .334.275c.157.059.353.098.628.098.157 0 .334 0 .491-.02.157-.02.334-.039.491-.078v1.825c-.256.04-.511.06-.766.079-.255.04-.491.04-.766.04-.628 0-1.118-.06-1.491-.177a2.147 2.147 0 0 1-.884-.51 1.829 1.829 0 0 1-.432-.845 6.787 6.787 0 0 1-.137-1.178v-6.282h-1.787v-1.786.04Z" fill="#10100F"/><path d="M28.21 61.732H17.431l-3.317-10.248-3.338 10.248L0 61.712l8.716 6.34L5.379 78.3l8.716-6.34 8.716 6.34-3.318-10.247 8.716-6.321Z" fill="#00B67A"/><path d="m20.24 70.369-.746-2.317-5.379 3.907 6.125-1.59Z" fill="#005128"/></svg>