<svg width="24" height="24" fill="none" xmlns="http://www.w3.org/2000/svg"><path fill="#C8032B" d="M1 4h22v16H1z"/><path d="M1 7.5h22v9H1v-9Z" fill="#FFCB00"/><path fill-rule="evenodd" clip-rule="evenodd" d="M10.5 10.722v2.52c0 .7-.672 1.26-1.5 1.26H7c-.826-.002-1.5-.565-1.5-1.262v-2.52c0-.572.448-1.05 1.064-1.205.186-.52.758-.054 1.436-.054.682 0 1.25-.463 1.436.055.614.159 1.064.638 1.064 1.206Z" fill="#C8B47C"/><path fill-rule="evenodd" clip-rule="evenodd" d="M10.5 11.5h1v3h-1v-3Zm-6 0h1v3h-1v-3Z" fill="#B5B5B5"/><path fill-rule="evenodd" clip-rule="evenodd" d="M10.5 13.5h1v1h-1v-1Zm-6 0h1v1h-1v-1Z" fill="#165C96"/><path fill-rule="evenodd" clip-rule="evenodd" d="M10.5 10.5h1v1h-1v-1Zm-6 0h1v1h-1v-1Z" fill="#A0790A"/><path fill-rule="evenodd" clip-rule="evenodd" d="M6.5 10.5h1V12h-1v-1.5Zm2 2h1V14h-1v-1.5Z" fill="#D20636"/><path fill-rule="evenodd" clip-rule="evenodd" d="M8.5 10.5h1V12h-1v-1.5Z" fill="#A18793"/><path fill-rule="evenodd" clip-rule="evenodd" d="M6.5 12.5h1V14h-1v-1.5Z" fill="#FFE100"/><path fill-rule="evenodd" clip-rule="evenodd" d="m7.5 10.5-1-1h3l-1 1h-1Z" fill="#B6161A"/><path fill-rule="evenodd" clip-rule="evenodd" d="M7.5 8.5h1v1h-1v-1Z" fill="#AC9300"/></svg>