<svg width="60" height="61" fill="none" xmlns="http://www.w3.org/2000/svg"><path d="M28.44 59.23a2.082 2.082 0 0 0 3.12 0 2.075 2.075 0 0 1 2.792-.295c1.001.743 2.436.424 3.05-.661a2.088 2.088 0 0 1 2.671-.88 2.074 2.074 0 0 0 2.837-1.26l.016-.053a2.081 2.081 0 0 1 2.428-1.404 2.081 2.081 0 0 0 2.515-1.823l.007-.068a2.094 2.094 0 0 1 2.087-1.883 2.094 2.094 0 0 0 2.087-2.313l-.008-.068a2.11 2.11 0 0 1 1.657-2.284 2.11 2.11 0 0 0 1.567-2.709l-.018-.055a2.125 2.125 0 0 1 1.15-2.59c1.144-.514 1.586-1.919.964-3.008a2.155 2.155 0 0 1 .583-2.797 2.143 2.143 0 0 0 .327-3.149 2.156 2.156 0 0 1 0-2.86 2.143 2.143 0 0 0-.327-3.149 2.155 2.155 0 0 1-.583-2.797c.622-1.09.18-2.494-.963-3.009a2.125 2.125 0 0 1-1.15-2.59l.017-.054a2.11 2.11 0 0 0-1.567-2.709 2.11 2.11 0 0 1-1.657-2.284l.008-.068a2.094 2.094 0 0 0-2.087-2.313 2.094 2.094 0 0 1-2.087-1.883l-.007-.068a2.081 2.081 0 0 0-2.515-1.823 2.081 2.081 0 0 1-2.428-1.404l-.017-.053a2.074 2.074 0 0 0-2.836-1.26 2.088 2.088 0 0 1-2.672-.88c-.613-1.085-2.048-1.404-3.049-.66a2.075 2.075 0 0 1-2.791-.296 2.082 2.082 0 0 0-3.122 0 2.075 2.075 0 0 1-2.791.295c-1.001-.743-2.436-.424-3.05.661a2.088 2.088 0 0 1-2.671.88 2.074 2.074 0 0 0-2.837 1.26l-.016.053a2.081 2.081 0 0 1-2.428 1.404 2.081 2.081 0 0 0-2.515 1.823l-.007.068a2.094 2.094 0 0 1-2.087 1.883A2.094 2.094 0 0 0 7.95 12.41l.007.068a2.11 2.11 0 0 1-1.656 2.284 2.11 2.11 0 0 0-1.567 2.709l.018.055a2.125 2.125 0 0 1-1.15 2.59c-1.144.514-1.586 1.919-.964 3.008a2.155 2.155 0 0 1-.583 2.797 2.143 2.143 0 0 0-.327 3.149 2.156 2.156 0 0 1 0 2.86 2.143 2.143 0 0 0 .327 3.149 2.155 2.155 0 0 1 .583 2.797c-.622 1.09-.18 2.494.963 3.009a2.125 2.125 0 0 1 1.15 2.59l-.017.054a2.11 2.11 0 0 0 1.567 2.709 2.11 2.11 0 0 1 1.656 2.284l-.007.068a2.094 2.094 0 0 0 2.087 2.313 2.094 2.094 0 0 1 2.087 1.883l.007.068a2.081 2.081 0 0 0 2.515 1.823c1.05-.23 2.103.38 2.428 1.404l.016.053a2.074 2.074 0 0 0 2.837 1.26 2.088 2.088 0 0 1 2.672.88c.613 1.085 2.048 1.404 3.049.66a2.075 2.075 0 0 1 2.791.296Z" fill="#EDCFE7"/><path d="M42.5 30.5c0 18.639-25 18.639-25 0h25Zm-26.25-7.625s5-5.719 10 0m7.5 0s5-5.719 10 0" stroke="#10100F" stroke-width="2"/></svg>