<svg width="30" height="30" fill="none" xmlns="http://www.w3.org/2000/svg"><path d="M10.933 25.332c.38.551 1.102.745 1.706.458a1.361 1.361 0 0 1 1.443.172 1.361 1.361 0 0 0 1.765-.042 1.36 1.36 0 0 1 1.434-.24c.616.257 1.33.03 1.682-.539a1.362 1.362 0 0 1 1.307-.635 1.361 1.361 0 0 0 1.463-.99c.14-.505.558-.886 1.075-.977a1.361 1.361 0 0 0 1.124-1.362 1.362 1.362 0 0 1 .757-1.24c.599-.298.893-.986.695-1.624a1.361 1.361 0 0 1 .376-1.404c.491-.454.58-1.197.21-1.754a1.361 1.361 0 0 1-.035-1.452 1.361 1.361 0 0 0-.293-1.742 1.362 1.362 0 0 1-.442-1.384 1.361 1.361 0 0 0-.772-1.589 1.361 1.361 0 0 1-.815-1.203 1.361 1.361 0 0 0-1.188-1.307 1.361 1.361 0 0 1-1.12-.925 1.361 1.361 0 0 0-1.508-.92 1.361 1.361 0 0 1-1.336-.572 1.361 1.361 0 0 0-1.706-.457 1.361 1.361 0 0 1-1.443-.172 1.361 1.361 0 0 0-1.765.042c-.392.35-.95.443-1.434.24a1.361 1.361 0 0 0-1.682.538 1.361 1.361 0 0 1-1.307.635 1.361 1.361 0 0 0-1.463.99 1.36 1.36 0 0 1-1.075.978 1.361 1.361 0 0 0-1.124 1.362 1.361 1.361 0 0 1-.757 1.24 1.361 1.361 0 0 0-.695 1.624 1.36 1.36 0 0 1-.376 1.404 1.361 1.361 0 0 0-.21 1.754c.29.437.304 1.002.035 1.452a1.361 1.361 0 0 0 .293 1.742c.402.337.574.876.442 1.384-.168.647.16 1.32.772 1.589.48.21.798.679.814 1.203a1.361 1.361 0 0 0 1.188 1.307c.521.067.957.427 1.121.925a1.361 1.361 0 0 0 1.508.92 1.361 1.361 0 0 1 1.336.572Z" fill="#EDCFE7"/><path d="M19.009 17.923c-2.904 3.25-8.825 1.888-9.66-2.588m.907-3.381s2.514-1.656 3.863 1.035m1.932.518s2.514-1.656 3.864 1.035" stroke="#10100F"/></svg>