<svg width="91" height="36" fill="none" xmlns="http://www.w3.org/2000/svg"><g clip-path="url(#a)" fill="#10100F"><path d="M43.04 17.587V28.14h-3.36V2.08h8.912a8.086 8.086 0 0 1 5.772 2.255 7.23 7.23 0 0 1 2.41 5.5 7.196 7.196 0 0 1-2.41 5.531c-1.559 1.481-3.483 2.22-5.772 2.22H43.04v.001Zm0-12.3v9.098h5.636A4.458 4.458 0 0 0 52 13.038a4.44 4.44 0 0 0 1.35-3.185A4.426 4.426 0 0 0 52 6.669a4.384 4.384 0 0 0-3.325-1.383H43.04v.002Zm21.478 4.44c2.484 0 4.445.662 5.882 1.984 1.438 1.322 2.156 3.136 2.154 5.44V28.14H69.34v-2.474h-.146c-1.392 2.037-3.242 3.056-5.552 3.056-1.972 0-3.622-.582-4.95-1.747a5.579 5.579 0 0 1-1.99-4.366c0-1.845.7-3.313 2.1-4.402 1.4-1.09 3.268-1.636 5.606-1.639 1.995 0 3.639.364 4.93 1.092v-.765a3.8 3.8 0 0 0-1.388-2.963 4.77 4.77 0 0 0-3.244-1.22c-1.877 0-3.362.788-4.456 2.365l-2.96-1.856c1.628-2.33 4.038-3.494 7.228-3.494Zm-4.347 12.955a2.665 2.665 0 0 0 1.114 2.183 4.11 4.11 0 0 0 2.611.873 5.368 5.368 0 0 0 3.78-1.563c1.114-1.044 1.67-2.269 1.67-3.675-1.047-.831-2.509-1.247-4.383-1.247-1.365 0-2.503.328-3.415.983-.92.666-1.377 1.475-1.377 2.446ZM91.006 10.31 79.785 36h-3.47l4.165-8.99-7.379-16.7h3.653l5.333 12.808h.073l5.187-12.809h3.66ZM29.46 15.312a17.77 17.77 0 0 0-.259-3.044H15.03v5.766h8.117a6.915 6.915 0 0 1-3.002 4.55v3.743h4.845c2.837-2.606 4.471-6.459 4.471-11.015Z"/><path d="M15.029 29.943c4.055 0 7.47-1.327 9.96-3.614l-4.845-3.743c-1.348.91-3.084 1.43-5.115 1.43-3.92 0-7.248-2.632-8.437-6.18H1.6v3.858a14.993 14.993 0 0 0 5.54 6.02 15.071 15.071 0 0 0 7.888 2.229Z"/><path d="M6.592 17.837a8.938 8.938 0 0 1 0-5.73V8.248H1.6a14.925 14.925 0 0 0 0 13.445l4.99-3.857Z"/><path d="M15.029 5.926a8.176 8.176 0 0 1 5.765 2.246l4.29-4.273A14.47 14.47 0 0 0 15.028 0C12.243 0 9.512.772 7.14 2.228a14.993 14.993 0 0 0-5.54 6.02l4.99 3.858c1.19-3.547 4.518-6.18 8.438-6.18Z"/></g><defs><clipPath id="a"><path fill="#fff" d="M0 0h91v36H0z"/></clipPath></defs></svg>