<svg width="12" height="12" fill="none" xmlns="http://www.w3.org/2000/svg"><path fill-rule="evenodd" clip-rule="evenodd" d="M1.729 4.271a1.729 1.729 0 1 0 0 3.458h.097l-.069.069a1.729 1.729 0 0 0 2.445 2.445l.07-.07v.098a1.729 1.729 0 0 0 3.457 0v-.097l.069.069a1.729 1.729 0 0 0 2.445-2.445l-.07-.07h.098a1.729 1.729 0 1 0 0-3.457h-.097l.068-.069a1.729 1.729 0 0 0-2.445-2.444l-.068.067V1.73a1.729 1.729 0 1 0-3.457 0v.098l-.07-.07a1.729 1.729 0 1 0-2.444 2.445l.068.069H1.73Z" fill="#FF8058"/></svg>