<svg width="100" height="24" fill="none" xmlns="http://www.w3.org/2000/svg"><g clip-path="url(#a)" fill="#000"><path d="M23.235 7.153h-3.723V23.5h3.723V7.153Zm11.714-.727c-2.474 0-3.857 1.12-4.837 2.208V.314h-3.728V23.5h3.727v-1.7c.907 1.093 2.239 2.2 4.838 2.2 4.773 0 7.621-3.523 7.621-8.972 0-5.45-2.774-8.602-7.621-8.602Zm-.537 14.412c-2.811 0-4.264-2.394-4.264-5.81 0-3.417 1.61-5.403 4.264-5.403 2.858 0 4.264 2.454 4.264 5.403 0 2.949-.943 5.81-4.264 5.81Zm20.21-10.56s-.592-.12-1.133-.12c-2.862 0-4.86 2.152-4.86 5.236V23.5H44.9V7.153h3.728v2.38c1.05-1.996 2.492-2.973 4.398-2.973.578 0 1.059.033 1.595.102v3.616Zm33.997 2.115V23.5H84.89V13.292c0-2.366-1.087-3.57-3.228-3.57-2.654 0-4.366 1.584-4.366 4.037V23.5H73.57V7.153h3.727V8.73c.86-1.013 2.516-2.296 5.402-2.296s5.92 1.565 5.92 5.958Zm7.519 6.274c0 1.685.417 1.967 1.67 1.967.67 0 1.096-.152 1.096-.152l.532 3.018s-1.189.3-2.294.3c-3.316 0-4.727-1.564-4.727-5.23V2.781h3.723v15.885ZM21.375 4.343a2.17 2.17 0 0 0 2.17-2.172 2.17 2.17 0 1 0-2.17 2.172ZM9.67 23.815c-3.533 0-4.601-3.537-5.522-6.806C3.334 14.116 2.326 10.995 0 9.65l1.864-3.23c3.635 2.107 4.985 6.153 5.864 9.574 1.059 4.12 1.896 4.084 1.896 4.084s2.497-.801 3.69-12.935h3.723c0 2.097-1.442 16.662-7.371 16.662l.004.009Z"/><path d="m90.297 10.727-.721-3.079C89.766 7.602 94.25 6.56 100 6.56v3.162c-5.36 0-9.656.991-9.698 1.005h-.005Zm-26.985-4.31c-3.676 0-5.623 1.717-7.066 4.277l3.158 1.477c.754-1.62 2.327-2.588 4.158-2.588 1.716 0 3.473 1.287 3.473 3.62v.848c-3.325-1.033-7.071-.648-9.351.986-1.355.977-2.072 2.31-2.072 3.861 0 3.047 2.326 5.097 5.79 5.097 2.456 0 4.39-.588 5.633-2.199v1.7h3.626V14.17c0-5.662-3.085-7.754-7.353-7.754h.004Zm-1.17 14.477c-1.822 0-2.668-.709-2.668-2.237 0-3.5 6.914-2.134 7.529-1.856 0 2.62-2.081 4.093-4.86 4.093Z"/></g><defs><clipPath id="a"><path fill="#fff" d="M0 0h100v24H0z"/></clipPath></defs></svg>