<svg width="64" height="64" fill="none" xmlns="http://www.w3.org/2000/svg"><path d="M42.022 7.93c.993.908 2.25 1.557 3.64 1.752l7.548 1.038c3.508.455 6.024 3.57 5.693 7.01l-.662 7.4a6.22 6.22 0 0 0 .927 3.895l3.906 6.426c1.787 2.986.927 6.816-2.053 8.699l-6.355 4.089c-1.125.779-2.052 1.817-2.516 3.116L49.436 58.3c-1.258 3.246-4.833 4.933-8.209 3.895l-7.216-2.272a7.124 7.124 0 0 0-4.038 0l-7.216 2.272c-3.376 1.038-6.951-.65-8.209-3.895l-2.714-6.945c-.463-1.299-1.39-2.337-2.516-3.116l-6.355-4.09C.05 42.268-.877 38.373.911 35.452l3.906-6.426c.728-1.168.993-2.531.926-3.894l-.662-7.4c-.33-3.44 2.185-6.491 5.694-7.01l7.547-1.04c1.39-.194 2.648-.778 3.64-1.752l5.495-5.128a6.693 6.693 0 0 1 9.136 0l5.429 5.128Z" fill="#FF8058"/></svg>