<svg width="176" height="71" fill="none" xmlns="http://www.w3.org/2000/svg"><path d="M154.101 44.32H20.413v1.72h133.688v-1.72ZM29.343 28.24h-2.61v3.862h2.544c1.228 0 2.04-.741 2.04-1.887 0-1.1-.812-1.976-1.974-1.976Zm.68 6.691h-3.29v1.909c0 .292.131.584.636.584h2.434v2.897H20.35v-2.897h1.338c.504 0 .636-.292.636-.584v-8.017c0-.292-.132-.584-.636-.584H20.35v-2.897h9.87c3.268 0 5.528 1.976 5.528 4.851 0 3.01-2.084 4.738-5.725 4.738Zm13.862-7.118c-2.523 0-2.961 1.931-2.961 5.21 0 2.627.395 4.67 2.96 4.67 2.304 0 2.962-1.84 2.962-4.648 0-3.413-.527-5.232-2.961-5.232Zm0 12.935c-5.55 0-7.655-3.077-7.655-8.13 0-3.93 2.215-7.657 7.523-7.657 5.045 0 7.787 2.627 7.787 7.725 0 5.075-2.83 8.062-7.655 8.062Zm8.093-.428v-2.896h1.338c.505 0 .636-.292.636-.584v-8.017c0-.292-.131-.584-.636-.584h-1.338v-2.897h8.84v2.897H59.04c-.504 0-.636.292-.636.584v7.612c0 .607.307.989 1.447.989 1.887 0 3.05-.382 3.137-2.56l.044-1.145h3.049v6.602H51.978m15.068-.001v-2.896h1.558c.504 0 .636-.292.636-.584v-8.017c0-.292-.132-.584-.636-.584h-1.558v-2.897h8.884v2.897h-1.558c-.504 0-.636.292-.636.584v8.017c0 .292.132.584.636.584h1.558v2.897h-8.884m22.11-8.287v-2.762c0-.561-.329-1.033-.987-1.033h-1.36v8.6c0 .293.132.585.636.585h1.777v2.897h-9.278v-2.897h1.776c.505 0 .636-.292.636-.584v-8.6h-1.36c-.68 0-.986.471-.986 1.032v2.762h-3.115v-6.692H92.27v6.692h-3.115m4.08 8.286v-2.896h1.557c.505 0 .637-.292.637-.584v-8.017c0-.292-.132-.584-.637-.584h-1.557v-2.897h8.883v2.897h-1.557c-.504 0-.636.292-.636.584v8.017c0 .292.132.584.636.584h1.557v2.897h-8.883m19.28-.001v-2.896h.702c.482 0 .526-.472.351-.741l-1.908-2.874-2.062 1.751v1.28c0 .292.132.584.636.584h.899v2.897h-7.962v-2.897h1.338c.505 0 .636-.292.636-.584v-8.017c0-.292-.131-.584-.636-.584h-1.338v-2.897h7.962v2.897h-.899c-.504 0-.636.292-.636.584v3.66l4.255-3.615c.241-.202.219-.629-.241-.629h-1.097v-2.897h8.137v2.897h-1.294c-.526 0-1.228.202-1.733.629l-2.456 2.066 3.97 5.884c.241.336.746.606 1.184.606h.768v2.897h-8.576Zm9.432 0v-2.896h1.337c.505 0 .636-.292.636-.584v-8.017c0-.292-.131-.584-.636-.584h-1.337v-2.897h15.024v5.817h-2.852l-.109-1.842c-.022-.539-.241-1.078-1.119-1.078h-4.518v3.279h1.228c.395 0 .526-.27.57-.607l.11-.988h2.084v5.367h-2.084l-.11-.875c-.044-.292-.175-.54-.548-.54h-1.25v2.695c0 .607.307.854.855.854h3.093c1.206 0 1.755-.63 1.798-1.64l.088-1.886h3.027v6.423h-15.287m32.79-12.081c-.504 0-.636.291-.636.583v11.498h-3.597l-6.822-8.623v5.142c0 .292.132.584.637.584h1.338v2.897h-7.392v-2.897h1.338c.504 0 .636-.292.636-.584v-8.017c0-.292-.132-.584-.636-.584h-1.338v-2.897h6.207l6.185 7.972v-4.49c0-.293-.131-.585-.636-.585h-1.338v-2.897h7.392v2.897h-1.338" fill="#10100F"/></svg>