<svg width="176" height="71" fill="none" xmlns="http://www.w3.org/2000/svg"><path d="M36.767 47.496H31.9l8.77-18.953h4.892l-8.795 18.953Zm102.963.077h-4.867l8.77-18.953h4.867l-8.77 18.953Zm-68.972-.077h-4.562V28.543h4.588l-.026 18.953Zm13.384 0h-3.093c-2.053 0-3.244-.206-3.624-.85-.38-.642-.583-1.8-.583-3.574l.025-11.135h-2.281v-3.42h2.281v-3.266h4.487v3.266h2.839v3.446h-2.84l-.025 11.058c0 .54.178.746.507.926.33.18 1.268.154 2.332.154l-.025 3.395ZM62.394 32.015H58.82c-1.47 0-2.434 1.028-2.46 2.648l-.024 12.807h-4.462V28.543h4.512v.591c.583-.514 1.521-.591 2.763-.591h3.295v3.472h-.05Zm36.348 12.163h-5.804l5.804-12.19v-3.42H87.944v3.42h5.805l-5.805 12.19v3.318h10.798v-3.318Zm10.469-.488v-4.604c-1.039.283-2.51 1.003-2.51 1.672v2.906c0 .386.153 1.08.837 1.106h.76c.583 0 .913-.515.913-1.08Zm4.385 3.883h-4.03v-.875c-.33.618-1.268.952-2.814.978h-.583c-2.484 0-3.701-.978-3.701-2.932v-3.755c0-.822.305-1.62.888-2.185.583-.618 1.673-1.415 3.498-2.34 1.064-.54 2.306-.952 2.306-1.286v-2.65a1.117 1.117 0 0 0-.887-1.053h-.836c-.583 0-.888.745-.913 1.105-.025.258 0 1.312 0 1.569h-4.132v-1.8c0-2.52 1.699-3.78 5.628-3.78h.785c3.245.051 4.766 1.337 4.766 3.96v15.018l.025.026Zm14.98.025h-4.41v-.771c-.558.566-1.42.849-2.611.874h-.836a3.73 3.73 0 0 1-2.307-.72 2.293 2.293 0 0 1-.989-1.877v-16.51h4.208v15.121c0 .566.38 1.106.913 1.106h.76c.38 0 .837-.566.837-1.054V28.594h4.41l.025 19.004Zm-58.147-22.27c0 1.132-.913 2.032-2.003 2.032-1.115 0-2.002-.926-2.002-2.032 0-1.105.912-2.031 2.002-2.031 1.116 0 2.003.926 2.003 2.031Z" fill="#10100F"/></svg>