<svg width="47" height="48" fill="none" xmlns="http://www.w3.org/2000/svg"><path d="M45.516 22.322a2.533 2.533 0 0 1 0 3.356 2.532 2.532 0 0 0-.382 2.781 2.533 2.533 0 0 1-.905 3.231 2.533 2.533 0 0 0-1.119 2.576 2.533 2.533 0 0 1-1.743 2.867 2.532 2.532 0 0 0-1.772 2.177 2.533 2.533 0 0 1-2.453 2.29 2.532 2.532 0 0 0-2.293 1.62 2.533 2.533 0 0 1-2.98 1.544 2.532 2.532 0 0 0-2.645.94 2.533 2.533 0 0 1-3.286.683 2.532 2.532 0 0 0-2.8.191 2.533 2.533 0 0 1-3.348-.229 2.533 2.533 0 0 0-2.75-.571 2.533 2.533 0 0 1-3.161-1.124 2.533 2.533 0 0 0-2.493-1.291 2.533 2.533 0 0 1-2.741-1.935 2.532 2.532 0 0 0-2.052-1.917 2.533 2.533 0 0 1-2.118-2.603 2.533 2.533 0 0 0-1.459-2.399 2.532 2.532 0 0 1-1.337-3.077 2.532 2.532 0 0 0-.757-2.704 2.533 2.533 0 0 1-.457-3.324 2.532 2.532 0 0 0 0-2.808 2.533 2.533 0 0 1 .457-3.324 2.532 2.532 0 0 0 .757-2.704 2.532 2.532 0 0 1 1.337-3.077 2.533 2.533 0 0 0 1.46-2.4A2.533 2.533 0 0 1 6.592 8.49a2.533 2.533 0 0 0 2.052-1.917 2.533 2.533 0 0 1 2.741-1.935 2.533 2.533 0 0 0 2.493-1.291 2.533 2.533 0 0 1 3.162-1.124 2.533 2.533 0 0 0 2.749-.571 2.533 2.533 0 0 1 3.347-.23c.81.624 1.915.7 2.801.192a2.532 2.532 0 0 1 3.286.683 2.533 2.533 0 0 0 2.645.94 2.533 2.533 0 0 1 2.98 1.544 2.532 2.532 0 0 0 2.293 1.62 2.533 2.533 0 0 1 2.453 2.29 2.532 2.532 0 0 0 1.772 2.177 2.533 2.533 0 0 1 1.743 2.867 2.533 2.533 0 0 0 1.119 2.576 2.533 2.533 0 0 1 .905 3.23 2.532 2.532 0 0 0 .382 2.782Z" fill="#383838"/></svg>