<svg width="185" height="186" fill="none" xmlns="http://www.w3.org/2000/svg"><path d="m92.5 0 11.336 10.08 13.62-6.631 8.211 12.78 14.895-2.69 4.476 14.534 15.064 1.45.411 15.209 14.116 5.482-3.686 14.757 12.122 9.108-7.509 13.21 9.228 12.058-10.775 10.682 5.65 14.115-13.243 7.363 1.654 15.124-14.728 3.499-2.466 15.011-15.121-.626-6.403 13.786-14.391-4.705-9.866 11.538L92.5 176.7l-12.595 8.434-9.866-11.538-14.391 4.705-6.403-13.786-15.12.626-2.467-15.011-14.728-3.499 1.654-15.124-13.243-7.363 5.65-14.115L.216 99.347l9.228-12.059-7.51-13.21 12.123-9.107-3.686-14.757 14.116-5.482.41-15.21 15.065-1.449 4.476-14.534 14.895 2.69 8.21-12.78 13.621 6.63L92.5 0Z" fill="#FF8058"/></svg>