<svg width="204" height="204" fill="none" xmlns="http://www.w3.org/2000/svg"><path d="M98.823 2.154c1.601-2.093 4.753-2.093 6.354 0l12.205 15.96a4 4 0 0 0 5.092 1.081l17.641-9.614c2.314-1.262 5.194.02 5.805 2.584l4.659 19.544a4 4 0 0 0 4.211 3.06l20.027-1.609c2.627-.211 4.736 2.132 4.252 4.722l-3.693 19.749a4 4 0 0 0 2.603 4.508l18.949 6.676c2.486.876 3.46 3.874 1.964 6.044l-11.406 16.54a4 4 0 0 0 .544 5.176l14.595 13.806c1.915 1.811 1.585 4.947-.664 6.32l-17.147 10.47a4.002 4.002 0 0 0-1.609 4.951l7.718 18.549c1.013 2.433-.563 5.164-3.177 5.503l-19.923 2.591a3.999 3.999 0 0 0-3.483 3.868l-.494 20.085c-.065 2.635-2.615 4.488-5.141 3.735l-19.254-5.737a4.001 4.001 0 0 0-4.756 2.118l-8.62 18.147c-1.131 2.381-4.215 3.036-6.216 1.321l-15.256-13.072a4.001 4.001 0 0 0-5.206 0l-15.256 13.072c-2.001 1.715-5.085 1.06-6.216-1.321l-8.62-18.147a4 4 0 0 0-4.756-2.118l-19.254 5.737c-2.526.753-5.076-1.1-5.141-3.735l-.494-20.085a4 4 0 0 0-3.483-3.868l-19.923-2.591c-2.614-.339-4.19-3.07-3.178-5.503l7.719-18.549a4 4 0 0 0-1.609-4.951L2.04 116.701c-2.25-1.373-2.579-4.509-.664-6.32L15.97 96.575a4 4 0 0 0 .544-5.177L5.108 74.858c-1.496-2.169-.522-5.167 1.964-6.043l18.95-6.676a4 4 0 0 0 2.602-4.508L24.93 37.882c-.484-2.59 1.625-4.933 4.252-4.722l20.027 1.608a4 4 0 0 0 4.21-3.06l4.66-19.543c.61-2.563 3.491-3.846 5.805-2.584l17.641 9.614a4 4 0 0 0 5.092-1.082L98.823 2.154Z" fill="#3083E4"/></svg>