<svg width="198" height="197" fill="none" xmlns="http://www.w3.org/2000/svg"><path d="M96.35 1.344a4 4 0 0 1 5.3 0l7.609 6.73a4.001 4.001 0 0 0 4.394.603l9.143-4.427a4 4 0 0 1 5.103 1.43l5.512 8.533a4 4 0 0 0 4.067 1.767l9.999-1.796a4 4 0 0 1 4.528 2.753l3.005 9.704a4 4 0 0 0 3.44 2.799l10.112.968a4 4 0 0 1 3.618 3.873l.275 10.155a4 4 0 0 0 2.557 3.623l9.477 3.66a4 4 0 0 1 2.438 4.706l-2.475 9.852a4 4 0 0 0 1.485 4.179l8.138 6.08a4 4 0 0 1 1.078 5.19l-5.041 8.82a4 4 0 0 0 .303 4.423l6.195 8.052a4 4 0 0 1-.362 5.287l-7.234 7.133a4.001 4.001 0 0 0-.902 4.341l3.793 9.424a4 4 0 0 1-1.775 4.994l-8.889 4.917a3.997 3.997 0 0 0-2.04 3.937l1.11 10.098a4 4 0 0 1-3.057 4.329l-9.886 2.336a4 4 0 0 0-3.027 3.241l-1.656 10.023a4 4 0 0 1-4.111 3.345l-10.15-.419a4.002 4.002 0 0 0-3.789 2.304l-4.298 9.205a4 4 0 0 1-4.861 2.111l-9.661-3.141a4 4 0 0 0-4.27 1.197l-6.622 7.703a4.001 4.001 0 0 1-5.251.722l-8.455-5.631a3.997 3.997 0 0 0-4.434 0l-8.455 5.631a4 4 0 0 1-5.25-.722l-6.623-7.703a4 4 0 0 0-4.27-1.197l-9.66 3.141a4 4 0 0 1-4.862-2.111l-4.298-9.205a4.002 4.002 0 0 0-3.79-2.304l-10.15.419a4 4 0 0 1-4.11-3.345l-1.656-10.023a4 4 0 0 0-3.027-3.241l-9.886-2.336a3.999 3.999 0 0 1-3.056-4.329l1.11-10.098a3.999 3.999 0 0 0-2.04-3.937L7.87 134.2a4 4 0 0 1-1.775-4.994l3.793-9.424a3.999 3.999 0 0 0-.902-4.341l-7.234-7.133a4 4 0 0 1-.362-5.287l6.195-8.052a4 4 0 0 0 .303-4.424l-5.041-8.82a4 4 0 0 1 1.078-5.188l8.138-6.081a4 4 0 0 0 1.485-4.179l-2.475-9.852a4 4 0 0 1 2.438-4.706l9.477-3.66a4 4 0 0 0 2.557-3.623l.275-10.155a4 4 0 0 1 3.618-3.873l10.112-.968a4 4 0 0 0 3.44-2.799l3.005-9.704a4 4 0 0 1 4.528-2.753l9.999 1.796a4 4 0 0 0 4.067-1.767l5.512-8.533a4 4 0 0 1 5.103-1.43l9.143 4.427a4 4 0 0 0 4.394-.604l7.61-6.73Z" fill="#2E9268"/></svg>