<svg width="48" height="47" fill="none" xmlns="http://www.w3.org/2000/svg"><path d="M22.322 1.484a2.533 2.533 0 0 1 3.356 0 2.532 2.532 0 0 0 2.781.382 2.533 2.533 0 0 1 3.231.905c.555.859 1.57 1.3 2.576 1.119a2.533 2.533 0 0 1 2.867 1.743 2.532 2.532 0 0 0 2.177 1.772 2.533 2.533 0 0 1 2.29 2.453 2.532 2.532 0 0 0 1.62 2.293 2.533 2.533 0 0 1 1.544 2.98 2.53 2.53 0 0 0 .94 2.645 2.533 2.533 0 0 1 .683 3.286 2.532 2.532 0 0 0 .191 2.8 2.533 2.533 0 0 1-.229 3.348 2.533 2.533 0 0 0-.571 2.75 2.533 2.533 0 0 1-1.124 3.161 2.533 2.533 0 0 0-1.291 2.493 2.533 2.533 0 0 1-1.935 2.741 2.533 2.533 0 0 0-1.917 2.052 2.533 2.533 0 0 1-2.603 2.118 2.533 2.533 0 0 0-2.399 1.459 2.532 2.532 0 0 1-3.077 1.337 2.533 2.533 0 0 0-2.704.757 2.532 2.532 0 0 1-3.324.457 2.533 2.533 0 0 0-2.808 0 2.532 2.532 0 0 1-3.324-.457 2.533 2.533 0 0 0-2.704-.758 2.532 2.532 0 0 1-3.077-1.336 2.533 2.533 0 0 0-2.4-1.46 2.533 2.533 0 0 1-2.602-2.117 2.533 2.533 0 0 0-1.917-2.052 2.533 2.533 0 0 1-1.935-2.741 2.533 2.533 0 0 0-1.291-2.493 2.533 2.533 0 0 1-1.124-3.162 2.533 2.533 0 0 0-.571-2.749 2.533 2.533 0 0 1-.23-3.347c.624-.81.7-1.915.192-2.801a2.532 2.532 0 0 1 .683-3.286 2.533 2.533 0 0 0 .94-2.645 2.533 2.533 0 0 1 1.544-2.98A2.532 2.532 0 0 0 6.4 9.858a2.533 2.533 0 0 1 2.29-2.453 2.532 2.532 0 0 0 2.177-1.772 2.533 2.533 0 0 1 2.867-1.743 2.534 2.534 0 0 0 2.576-1.119 2.533 2.533 0 0 1 3.23-.905c.92.445 2.017.295 2.782-.382Z" fill="#FF8058"/></svg>