<svg width="176" height="71" fill="none" xmlns="http://www.w3.org/2000/svg"><path d="m77.424 28.083-2.7-7.729a1.05 1.05 0 0 0 .507-.896c0-.64-.633-1.153-1.498-1.153-.864 0-1.518.512-1.518 1.174.021.405.232.747.59.94l-2.783 7.685h1.603l.548-1.772h3.036l.57 1.772h1.645v-.021Zm-2.53-2.904h-2.341l1.138-3.586h.085l1.117 3.586Zm-.486-5.721a.644.644 0 0 1-.696.597.612.612 0 0 1-.464-.15.585.585 0 0 1-.19-.447c0-.171.064-.342.19-.449a.732.732 0 0 1 .464-.17.612.612 0 0 1 .464.149.602.602 0 0 1 .211.448h.021v.022Zm6.748 3.95v-1.303a3.354 3.354 0 0 0-2.151.576v-.533h-1.328v5.913h1.497v-4.27c.548-.405 1.455-.384 1.982-.384Zm5.524 4.653v-4.163c0-1.451-.99-1.857-1.834-1.857-.59 0-1.329.32-1.877.555v-2.989h-1.497v8.454h1.497v-4.376a4.698 4.698 0 0 1 1.434-.342c.633 0 .78.534.78.94v3.8l1.497-.022Zm6.01 0v-5.913h-1.476v4.355a2.782 2.782 0 0 1-1.35.363c-.696 0-.759-.662-.759-1.046v-3.694h-1.497v4.12c0 1.495.928 1.9 1.73 1.9.822 0 1.349-.277 2.002-.618v.533h1.35Zm5.42-1.878c0-1.26-1.182-1.559-1.877-1.708-.528-.107-1.35-.214-1.35-.748 0-.533.738-.64 1.202-.64.548.021 1.096.085 1.645.192v-1.067a11.711 11.711 0 0 0-1.94-.171c-1.013 0-2.446.341-2.446 1.836 0 1.388 1.412 1.665 1.729 1.73.885.213 1.455.234 1.455.79 0 .554-.78.704-1.329.704a7.291 7.291 0 0 1-1.792-.278v1.11c.675.15 1.35.235 2.024.235 1.645.021 2.7-.726 2.678-1.985ZM29.62 48.236c2.953 0 6.559-1.26 6.559-5.102 0-6.191-8.16-3.565-8.16-7.173 0-1.73 2.192-2.071 3.373-2.071 1.223.021 2.425.15 3.606.448v-2.52a18.56 18.56 0 0 0-3.901-.469c-3.353 0-6.347 1.196-6.347 5.017 0 5.765 8.097 3.822 8.097 7.067 0 1.815-2.15 2.284-3.48 2.284-1.96 0-4.512-.683-4.512-.683v2.605a18.73 18.73 0 0 0 4.766.597Zm14.72-10.14v-2.37h-3.48v-4.291c-.506.192-2.973 1.067-2.973 1.067v3.224h-2.32v2.37h2.299v6.554c0 3.309 1.77 3.309 3.753 3.309h2.488V45.61H42.02c-.59 0-1.16-.213-1.16-1.174v-6.34h3.48Zm3.879-2.392H45.14V47.96h3.1l-.021-12.255Zm0-5.252H45.14v3.075h3.1l-.021-3.075Zm9.404 7.58v-2.328h-3.458v-.832c0-1.943.443-2.178 2.172-2.178h1.286v-2.242H54.84c-.928 0-1.729.022-2.488.64-1.075.855-1.286 2.157-1.286 3.524v1.088h-2.193v2.328h2.193v9.927h3.1V38.03h3.458Zm8.962.042v-2.37h-3.48v-4.29c-.505.191-2.972 1.067-2.972 1.067v3.223h-2.32v2.37h2.299v6.554c0 3.31 1.77 3.31 3.753 3.31h2.488v-2.349h-2.087c-.59 0-1.16-.213-1.16-1.174v-6.34h3.48Zm10.164 5.957c0-2.605-2.446-3.245-3.901-3.544-1.118-.235-2.784-.427-2.784-1.538 0-1.11 1.519-1.323 2.51-1.323a16.58 16.58 0 0 1 3.395.406v-2.2a21.02 21.02 0 0 0-4.007-.341c-2.087 0-5.04.726-5.04 3.779 0 2.86 2.931 3.437 3.564 3.586 1.835.427 2.994.491 2.994 1.666 0 1.174-1.602 1.473-2.762 1.473-1.35 0-2.573-.3-3.732-.577v2.306c1.37.32 2.783.491 4.196.491 3.395-.021 5.567-1.537 5.567-4.184Zm8.666-5.935v-2.37h-3.479v-4.291c-.506.192-2.973 1.067-2.973 1.067v3.224h-2.32v2.37h2.299v6.554c0 3.309 1.771 3.309 3.753 3.309h2.488V45.61h-2.087c-.59 0-1.16-.213-1.16-1.174v-6.34h3.48Zm3.901-2.392h-3.1V47.96h3.1V35.704Zm0-5.252h-3.1v3.075h3.1v-3.075Zm12.315 17.208V30.453h-3.1v5.187a19.322 19.322 0 0 0-1.94-.106c-3.69 0-6.01 2.519-6.01 6.426 0 4.184 2.89 6.234 6.558 6.234a29.308 29.308 0 0 0 4.492-.534Zm-3.121-2.007c-.654.107-1.308.128-1.961.107-2.193-.064-2.826-2.114-2.826-3.843 0-2.306.78-4.056 3.079-4.056.843 0 1.729.085 1.729.085l-.021 7.707Zm10.922 2.605a18.44 18.44 0 0 0 4.049-.513v-2.092a15.434 15.434 0 0 1-3.289.427c-1.919 0-3.817-.555-4.007-3.309h8.182c.084-4.91-1.35-7.301-5.609-7.301-3.901 0-5.841 2.519-5.841 6.511 0 4.676 2.931 6.255 6.515 6.277Zm1.603-7.558h-4.85c0-1.665.654-3.117 2.425-3.117 2.045-.021 2.404 1.559 2.425 3.117Zm15.182 7.259v-8.604c0-2.818-1.877-3.821-3.5-3.821-1.497 0-3.1.661-4.386 1.28v-1.088h-2.784V47.98h3.1v-9.073c.316-.171 1.771-.705 2.847-.705 1.56 0 1.623 1.175 1.623 1.794v7.984h3.1v-.021Zm12.251-.299V30.453h-3.099v5.187a19.34 19.34 0 0 0-1.94-.106c-3.69 0-6.01 2.519-6.01 6.426 0 4.184 2.889 6.234 6.558 6.234a28.678 28.678 0 0 0 4.491-.534Zm-3.099-2.007a10.08 10.08 0 0 1-1.961.107c-2.193-.064-2.826-2.114-2.826-3.843 0-2.306.78-4.056 3.079-4.056.843 0 1.729.085 1.729.085l-.021 7.707Zm10.922 2.605a18.447 18.447 0 0 0 4.049-.513v-2.092a14.163 14.163 0 0 1-3.269.427c-1.918 0-3.816-.555-4.006-3.309h8.182c.084-4.91-1.35-7.301-5.609-7.301-3.901 0-5.841 2.519-5.841 6.511 0 4.676 2.91 6.255 6.494 6.277Zm1.603-7.558h-4.85c0-1.665.654-3.117 2.425-3.117 2.045 0 2.404 1.559 2.425 3.117Z" fill="#10100F"/></svg>