<svg width="228" height="80" fill="none" xmlns="http://www.w3.org/2000/svg"><path d="M0 0h42.75v42.537H0V0Zm46.313 0h42.75v42.537h-42.75V0Zm46.312 0h42.75v42.537h-42.75V0Zm46.313 0h42.75v42.537h-42.75V0Zm46.312 0H228v42.537h-42.75V0Z" fill="#10100F"/><path d="m21.377 28.669 6.501-1.64 2.716 8.33-9.217-6.69ZM36.339 17.9H24.895L21.377 7.178l-3.518 10.723H6.414l9.263 6.647-3.518 10.723 9.262-6.647 5.7-4.076L36.34 17.9ZM67.69 28.67l6.502-1.64 2.716 8.33-9.218-6.69ZM82.652 17.9H71.207L67.689 7.178l-3.518 10.723H52.727l9.262 6.647-3.518 10.723 9.263-6.647 5.7-4.076 9.218-6.647Zm31.35 10.768 6.501-1.64 2.717 8.33-9.218-6.69ZM128.964 17.9H117.52l-3.518-10.723-3.518 10.723H99.039l9.263 6.647-3.518 10.723 9.262-6.647 5.7-4.076 9.218-6.647Zm31.35 10.768 6.502-1.64 2.716 8.33-9.218-6.69ZM175.277 17.9h-11.445l-3.518-10.723-3.518 10.723h-11.444l9.262 6.647-3.518 10.723 9.263-6.647 5.7-4.076 9.218-6.647Zm31.35 10.768 6.501-1.64 2.717 8.33-9.218-6.69ZM221.589 17.9h-11.444l-3.518-10.723-3.518 10.723h-11.445l9.263 6.647-3.518 10.723 9.262-6.647 5.7-4.076 9.218-6.647Z" fill="#fff"/><path d="M30.957 61.424h11.916v2.207h-4.692v12.443H35.61V63.63h-4.672l.02-2.207Zm11.406 4.044h2.198v2.05h.04c.078-.293.215-.566.412-.84.196-.273.432-.527.726-.742a3.22 3.22 0 0 1 .942-.547 2.755 2.755 0 0 1 1.04-.215c.276 0 .472.02.57.02.098.02.216.04.314.04v2.245c-.157-.039-.334-.058-.51-.078-.177-.02-.334-.039-.51-.039a2.73 2.73 0 0 0-1.12.235c-.353.156-.647.39-.922.683a3.698 3.698 0 0 0-.628 1.133c-.157.45-.236.977-.236 1.563v5.04h-2.356l.04-10.549Zm17.039 10.606h-2.316v-1.485h-.04c-.294.547-.726.957-1.295 1.29a3.432 3.432 0 0 1-1.747.488c-1.394 0-2.415-.332-3.043-1.035-.628-.684-.942-1.739-.942-3.126v-6.739h2.355v6.505c0 .938.177 1.602.55 1.973.353.39.864.586 1.511.586.491 0 .904-.078 1.237-.235.334-.156.609-.351.805-.605.216-.254.353-.567.452-.918.098-.352.137-.742.137-1.153v-6.153h2.356v10.607h-.02Zm4.005-3.399c.078.684.333 1.153.785 1.446.451.273 1.001.41 1.63.41.215 0 .47-.02.745-.059a3.27 3.27 0 0 0 .785-.195c.256-.098.452-.235.609-.43a.997.997 0 0 0 .216-.723c-.02-.293-.118-.546-.334-.742-.216-.195-.47-.332-.785-.469a6.844 6.844 0 0 0-1.1-.293c-.412-.078-.824-.175-1.256-.273a13.64 13.64 0 0 1-1.276-.352 3.661 3.661 0 0 1-1.099-.566 2.439 2.439 0 0 1-.766-.899c-.196-.37-.294-.8-.294-1.347 0-.586.137-1.055.432-1.446.275-.39.648-.703 1.08-.938.431-.234.922-.41 1.452-.507a8.354 8.354 0 0 1 1.512-.137c.55 0 1.08.058 1.57.176.49.117.962.293 1.355.566.412.254.746.606 1 1.016.276.41.433.918.511 1.504h-2.454c-.117-.567-.373-.938-.765-1.133a3.175 3.175 0 0 0-1.394-.293c-.157 0-.373.02-.589.04a3.423 3.423 0 0 0-.648.155 1.536 1.536 0 0 0-.51.332.78.78 0 0 0-.216.567c0 .293.098.508.294.684.197.175.452.312.786.449.314.117.687.215 1.099.293.412.078.844.176 1.276.273.432.098.844.215 1.256.352.413.137.786.312 1.1.566.314.235.589.528.785.88.196.35.294.8.294 1.308 0 .625-.137 1.152-.431 1.602-.295.43-.668.8-1.12 1.074-.451.273-.981.469-1.53.605a8.263 8.263 0 0 1-1.67.196 7.063 7.063 0 0 1-1.864-.235 4.758 4.758 0 0 1-1.492-.683 3.284 3.284 0 0 1-.982-1.153c-.235-.449-.373-.996-.392-1.64h2.375v.02h.02Zm7.754-7.207h1.786v-3.204h2.356v3.184h2.12v1.738h-2.12v5.665c0 .254.02.45.04.645.019.175.078.332.136.449a.766.766 0 0 0 .334.273c.157.059.354.098.628.098.157 0 .334 0 .491-.02.157-.02.334-.039.491-.078v1.817c-.255.039-.51.058-.766.078-.255.039-.49.039-.765.039-.628 0-1.12-.059-1.492-.176a2.145 2.145 0 0 1-.884-.508 1.811 1.811 0 0 1-.431-.84 6.633 6.633 0 0 1-.138-1.172v-6.25h-1.786v-1.778.04Zm7.911 0h2.218v1.445h.04c.333-.625.785-1.055 1.374-1.328a4.47 4.47 0 0 1 1.923-.41c.845 0 1.57.136 2.2.449a4.122 4.122 0 0 1 1.55 1.21c.412.509.726 1.114.922 1.798a7.96 7.96 0 0 1 .315 2.188c0 .722-.099 1.406-.275 2.07-.197.664-.471 1.27-.844 1.778a4.172 4.172 0 0 1-1.433 1.23c-.59.313-1.257.469-2.042.469-.334 0-.687-.04-1.02-.098a4.362 4.362 0 0 1-.982-.293 3.522 3.522 0 0 1-.864-.527 2.98 2.98 0 0 1-.667-.742h-.04V80h-2.355V65.468h-.02Zm8.225 5.312c0-.468-.059-.937-.196-1.386a3.53 3.53 0 0 0-.57-1.192 3.134 3.134 0 0 0-.922-.84c-.373-.215-.805-.312-1.276-.312-.981 0-1.727.332-2.238 1.015-.49.684-.746 1.602-.746 2.735 0 .547.059 1.035.196 1.484.138.45.314.84.59 1.172a2.8 2.8 0 0 0 .942.782c.373.195.785.293 1.276.293.55 0 .981-.117 1.354-.332a3.16 3.16 0 0 0 .923-.84c.235-.352.412-.742.51-1.192a6.68 6.68 0 0 0 .157-1.387Zm4.142-9.356h2.356v2.207h-2.356v-2.207Zm0 4.044h2.356v10.606h-2.356V65.468Zm4.457-4.044h2.355v14.65h-2.356v-14.65Zm9.54 14.943c-.844 0-1.61-.137-2.277-.43a5.162 5.162 0 0 1-1.688-1.152 5.012 5.012 0 0 1-1.041-1.778 6.928 6.928 0 0 1-.373-2.246c0-.801.118-1.543.373-2.227a5.19 5.19 0 0 1 1.041-1.777 4.7 4.7 0 0 1 1.688-1.153 5.982 5.982 0 0 1 2.277-.43c.844 0 1.61.137 2.277.43a4.88 4.88 0 0 1 1.688 1.153 5.013 5.013 0 0 1 1.041 1.777 6.81 6.81 0 0 1 .373 2.227c0 .82-.118 1.563-.373 2.246-.255.684-.589 1.27-1.041 1.778a4.698 4.698 0 0 1-1.688 1.152 5.908 5.908 0 0 1-2.277.43Zm0-1.856c.51 0 .982-.117 1.354-.332.393-.215.688-.508.943-.86a3.66 3.66 0 0 0 .549-1.19 5.323 5.323 0 0 0 0-2.716 3.482 3.482 0 0 0-.549-1.191 2.978 2.978 0 0 0-.943-.84 2.777 2.777 0 0 0-1.354-.332c-.51 0-.982.117-1.355.332-.392.215-.687.508-.942.84a3.482 3.482 0 0 0-.549 1.191 5.286 5.286 0 0 0 0 2.715c.117.45.294.84.549 1.192.255.351.569.644.942.86.393.234.845.331 1.355.331Zm6.085-9.043h1.787v-3.204h2.356v3.184h2.12v1.738h-2.12v5.665c0 .254.019.45.039.645.019.175.078.332.137.449a.772.772 0 0 0 .334.273c.157.059.353.098.628.098.157 0 .334 0 .491-.02.157-.02.334-.039.491-.078v1.817c-.256.039-.511.058-.766.078-.255.039-.491.039-.766.039-.628 0-1.118-.059-1.491-.176a2.149 2.149 0 0 1-.884-.508 1.816 1.816 0 0 1-.432-.84 6.72 6.72 0 0 1-.137-1.172v-6.25h-1.787v-1.778.04ZM28.21 61.424H17.431l-3.317-10.196-3.338 10.196L0 61.404l8.716 6.31L5.379 77.91l8.716-6.31 8.716 6.31-3.318-10.196 8.716-6.29Z" fill="#10100F"/><path d="m20.242 70.018-.746-2.305-5.379 3.888 6.125-1.583Z" fill="#383838"/></svg>